<svg version="1.0" xmlns="http://www.w3.org/2000/svg" width="682.667" height="682.667" viewBox="0 0 512 512"><g fill="currentColor"><path d="M249.2 2c-1.8 1.1-4.1 3.4-5.2 5.2-1.9 3.1-2 4.7-1.8 30l.3 26.8 3.6 3.6c6.3 6.2 16.3 5.6 21.4-1.4 1.9-2.5 2-4.5 2.3-29.2.2-25.1.1-26.7-1.8-29.8C265.4 3 260.4 0 256 0c-1.9 0-5 .9-6.8 2zM120.3 31c-5.7 3.4-8.5 10.2-6.5 15.9 1.5 4.1 23.9 41 27 44.4 4 4.2 9.1 5.4 14.7 3.3 6.1-2.4 9-6.6 9-13.1 0-4.6-.9-6.5-13.1-26.5-8.9-14.6-14.2-22.2-16.4-23.8-4.1-2.8-10.3-2.9-14.7-.2zm256.7.2c-2.2 1.6-7.5 9.2-16.4 23.8-12.2 20-13.1 21.9-13.1 26.5 0 6.4 2.9 10.7 8.9 13 5.4 2.1 11 .9 14.8-3.2 3.1-3.4 25.5-40.3 27-44.4 4.1-11.8-10.8-22.8-21.2-15.7zM22.6 116c-10 3.1-13.3 16.2-5.9 23.2 1.6 1.4 12.7 8.1 24.9 14.7C60.4 164.2 64.3 166 68.1 166c8.5 0 13.9-5.7 13.9-14.6 0-4-.5-5.1-3.7-8.3-4.2-4.1-45-26.6-49.8-27.4-1.6-.3-4.3-.2-5.9.3zm458.4.4c-6.3 2.3-46.5 24.7-48.2 26.9-4.7 5.9-4 14.3 1.6 19.4 3.1 2.8 4.3 3.3 8.7 3.3 4.7 0 7.1-1.1 27.3-12 26.1-14.2 28.6-16.4 28.6-24.5 0-4.6-.4-5.9-3.1-8.9-1.7-2-4.7-4-6.7-4.6-4.4-1.2-3.9-1.2-8.2.4zm-317.5 12.1c-16 3.5-28.7 10.5-40.6 22.4-11.2 11.2-18.7 24.4-21.8 38.1-.5 2.5-7.8 54-16 114.5-8.3 60.5-15.3 111.4-15.6 113.2l-.6 3.2-17.9.3-18 .3-2.9 3c-2.2 2.2-6.5 11.7-16.6 37.5C1.9 490.4-.1 496.1.3 499.4c.7 4.9 3.3 8.6 7.8 10.8 3.2 1.7 17.1 1.8 247.9 1.8s244.7-.1 247.9-1.8c4.5-2.2 7.1-5.9 7.8-10.8.4-3.3-1.6-9.1-13.2-38.4-7.5-19-14.4-35.3-15.3-36.4-3.7-4.1-6.5-4.6-23.6-4.6h-16.4l-.6-2.7c-.3-1.6-7.3-52.5-15.6-113.3s-16-113.8-17-117.8c-7.9-28.9-32.1-51.4-62.2-57.7-9.7-2.1-175-2.1-184.3 0zm179 28c18.8 4 34.3 17.9 39.5 35.5 1.5 4.9 32 221.4 32 226.9 0 .8-47.2 1.1-158 1.1-86.9 0-158-.3-158-.7 0-5.3 30.6-222.6 32-227.3 5.1-17.4 20.7-31.5 39-35.4 9.9-2.2 163.4-2.2 173.5-.1zm126.9 308.3c3.6 9.3 6.6 17.4 6.6 18 0 .9-50.8 1.2-220 1.2s-220-.3-220-1.2c0-.6 3-8.7 6.6-18l6.6-16.8h413.6l6.6 16.8z"/><path d="M235 223.2c0 13.9 5.2 90.8 6.6 97.5.4 2.3.7 2.3 14.4 2.3h13.9l.5-4.3c2.1-15.6 6.6-81.3 6.6-95.1V207h-42v16.2zm12.5 118.2c-13.9 6.3-16.6 25.2-5.2 35.3 13.4 11.7 34.6 2.1 34.7-15.8 0-6.3-4-13.9-9.2-17.5-3.3-2.3-5.3-2.9-10.7-3.1-4.1-.2-7.7.2-9.6 1.1z"/></g></svg>