<?xml version="1.0" encoding="UTF-8"?><!DOCTYPE svg PUBLIC "-//W3C//DTD SVG 1.1//EN" "http://www.w3.org/Graphics/SVG/1.1/DTD/svg11.dtd"><svg xmlns="http://www.w3.org/2000/svg" xmlns:xlink="http://www.w3.org/1999/xlink"><symbol id="arrow-left" viewBox="0 0 256 256"><rect width="256" height="256" fill="none"/><circle cx="128" cy="128" r="96" fill="none" stroke="currentColor" stroke-linecap="round" stroke-linejoin="round" stroke-width="24"/><polyline points="121.9 161.9 88 128 121.9 94.1" fill="none" stroke="currentColor" stroke-linecap="round" stroke-linejoin="round" stroke-width="24"/><line x1="168" y1="128" x2="88" y2="128" fill="none" stroke="currentColor" stroke-linecap="round" stroke-linejoin="round" stroke-width="24"/></symbol><symbol id="arrow-right" viewBox="0 0 256 256"><rect width="256" height="256" fill="none"/><circle cx="128" cy="128" r="96" fill="none" stroke="currentColor" stroke-linecap="round" stroke-linejoin="round" stroke-width="24"/><polyline points="134.1 161.9 168 128 134.1 94.1" fill="none" stroke="currentColor" stroke-linecap="round" stroke-linejoin="round" stroke-width="24"/><line x1="88" y1="128" x2="168" y2="128" fill="none" stroke="currentColor" stroke-linecap="round" stroke-linejoin="round" stroke-width="24"/></symbol><symbol id="equality" viewBox="0 0 512.000000 512.000000" preserveAspectRatio="xMidYMid meet">

<g transform="translate(0.000000,512.000000) scale(0.100000,-0.100000)" fill="currentColor" stroke="none">
<path d="M2471 4995 c-150 -113 -344 -201 -546 -247 -80 -19 -131 -21 -482
-25 -216 -3 -393 -6 -393 -7 0 -1 -29 -196 -64 -432 -155 -1030 -266 -1878
-266 -2032 0 -139 172 -322 528 -563 l132 -90 -15 -27 c-8 -15 -138 -216 -289
-447 -150 -231 -273 -421 -271 -423 1 -1 167 18 369 44 202 25 370 43 373 41
3 -3 67 -170 142 -372 l138 -366 274 503 275 503 49 -5 c28 -3 88 -5 135 -5
47 0 107 2 135 5 l49 5 275 -503 274 -503 138 366 c75 202 140 369 143 372 3
3 171 -15 373 -40 202 -26 368 -45 369 -44 1 1 -122 191 -272 422 -151 231
-281 432 -289 447 l-15 27 132 90 c356 241 528 424 528 563 0 154 -113 1016
-266 2032 -35 235 -64 430 -64 431 0 2 -174 5 -387 7 -415 5 -462 10 -643 68
-105 34 -298 135 -393 205 -48 36 -88 65 -90 64 -1 0 -40 -29 -86 -64z m155
-181 c146 -98 359 -185 553 -226 81 -17 146 -21 424 -25 325 -5 327 -5 332
-27 7 -34 140 -941 184 -1261 57 -409 98 -747 112 -906 l12 -137 -26 -44 c-80
-138 -461 -407 -1017 -720 -408 -230 -498 -268 -640 -268 -138 0 -220 34 -594
242 -569 317 -981 606 -1063 745 l-26 45 12 137 c14 163 57 510 112 906 46
331 177 1229 184 1261 5 22 7 22 332 27 365 5 424 13 629 82 134 45 338 151
410 214 1 1 32 -20 70 -45z m-922 -3408 c100 -58 253 -143 341 -190 88 -47
165 -89 171 -93 8 -5 -46 -114 -172 -343 -101 -184 -186 -334 -190 -333 -4 1
-51 118 -104 260 -91 243 -98 258 -121 256 -13 -2 -132 -16 -263 -33 -132 -16
-240 -29 -241 -27 -3 3 389 606 394 607 2 0 85 -47 185 -104z m2097 -199 c108
-166 195 -303 195 -304 -1 -1 -103 11 -226 27 -124 15 -243 30 -264 32 l-39 3
-97 -258 c-53 -142 -100 -259 -104 -260 -4 -1 -89 149 -190 333 -126 229 -180
338 -172 343 6 4 92 51 190 104 99 53 252 138 340 189 89 52 163 94 166 94 3
-1 93 -137 201 -303z"/>
<path d="M2462 4610 c-148 -85 -358 -157 -557 -191 -38 -7 -185 -15 -325 -18
l-255 -6 -22 -150 c-113 -757 -239 -1686 -258 -1906 l-6 -75 68 -65 c189 -178
622 -453 1184 -752 230 -123 318 -118 594 30 529 284 938 545 1119 714 l77 72
-6 76 c-19 220 -145 1149 -258 1906 l-22 150 -260 6 c-143 4 -289 12 -325 18
-211 38 -431 116 -588 210 -29 17 -58 31 -65 30 -7 -1 -50 -23 -95 -49z m198
-181 c255 -124 476 -176 798 -186 117 -3 202 -10 202 -15 0 -6 38 -274 84
-596 90 -623 166 -1206 166 -1273 0 -46 -5 -51 -148 -160 -178 -135 -506 -338
-842 -521 -293 -160 -275 -152 -360 -153 l-75 0 -182 98 c-458 246 -836 481
-1033 644 -54 44 -59 52 -59 88 -1 93 78 691 241 1808 l11 77 139 0 c319 0
614 65 858 189 52 27 97 48 100 47 3 0 48 -22 100 -47z"/>
<path d="M2465 4296 c-27 -13 -60 -34 -72 -47 -24 -28 -590 -1105 -641 -1222
-91 -209 -95 -495 -11 -706 205 -515 818 -717 1286 -425 142 88 270 237 338
390 87 196 98 464 29 674 -28 82 -624 1236 -664 1284 -33 39 -114 76 -170 76
-26 0 -66 -10 -95 -24z m132 -151 c29 -20 610 -1137 648 -1245 28 -81 30 -93
29 -240 0 -140 -3 -163 -27 -235 -38 -115 -91 -199 -182 -290 -91 -91 -175
-144 -290 -182 -71 -23 -96 -26 -215 -26 -119 0 -144 3 -215 26 -114 38 -198
90 -290 182 -141 140 -202 281 -212 485 -7 136 12 247 58 349 72 159 603 1163
622 1176 27 19 47 19 74 0z"/>
<path d="M2320 3200 l0 -160 -160 0 -160 0 0 -240 0 -240 160 0 160 0 0 -160
0 -160 240 0 240 0 0 160 0 160 160 0 160 0 0 240 0 240 -160 0 -160 0 0 160
0 160 -240 0 -240 0 0 -160z m320 -160 l0 -160 160 0 160 0 0 -80 0 -80 -160
0 -160 0 0 -160 0 -160 -80 0 -80 0 0 160 0 160 -160 0 -160 0 0 80 0 80 160
0 160 0 0 160 0 160 80 0 80 0 0 -160z"/>
</g>
</symbol><symbol id="guarantee" viewBox="0 0 512.000000 512.000000" preserveAspectRatio="xMidYMid meet">

<g transform="translate(0.000000,512.000000) scale(0.100000,-0.100000)" fill="currentColor" stroke="none">
<path d="M1923 4863 c-88 -30 -163 -118 -277 -321 -103 -183 -124 -198 -355
-247 -242 -51 -323 -90 -381 -181 -53 -84 -60 -167 -34 -392 19 -162 14 -228
-20 -285 -13 -23 -71 -93 -128 -155 -198 -213 -236 -329 -158 -488 31 -64 58
-99 191 -247 134 -149 141 -171 114 -408 -32 -285 -3 -390 135 -480 l24 -16
-219 -379 c-121 -208 -221 -391 -223 -407 -5 -34 21 -75 54 -83 16 -4 137 23
355 81 181 49 331 86 332 84 2 -2 43 -150 90 -329 74 -278 90 -328 112 -347
31 -27 65 -29 94 -6 11 10 112 178 225 373 l204 355 60 16 c33 10 128 47 212
84 227 100 247 100 492 -12 66 -29 148 -61 183 -70 l63 -17 198 -346 c109
-190 211 -357 226 -372 45 -47 106 -30 127 35 6 17 47 167 91 331 44 164 82
301 85 304 3 3 150 -34 328 -81 177 -48 331 -87 343 -87 26 0 62 33 70 64 7
30 17 12 -237 447 -146 251 -207 365 -198 367 8 3 39 30 70 61 92 91 105 174
74 457 -24 212 -15 238 142 406 149 162 203 257 203 358 0 107 -47 191 -205
366 -60 65 -117 139 -128 164 -23 51 -26 153 -8 275 16 109 14 255 -6 315 -22
68 -86 138 -158 174 -31 15 -107 38 -168 52 -285 62 -310 72 -366 148 -21 28
-62 94 -91 147 -121 224 -218 308 -355 308 -72 1 -132 -18 -305 -94 -229 -101
-255 -101 -501 11 -185 84 -281 101 -376 67z m241 -187 c44 -19 118 -51 164
-71 45 -20 118 -44 161 -53 75 -15 81 -15 162 5 47 11 141 46 209 78 69 31
153 64 188 73 62 17 63 16 106 -6 51 -28 81 -67 177 -234 141 -245 186 -275
513 -343 139 -28 202 -57 233 -104 20 -29 23 -47 23 -120 0 -47 -5 -117 -11
-156 -6 -38 -10 -115 -11 -170 0 -159 29 -215 226 -432 94 -103 125 -156 126
-211 0 -65 -22 -98 -193 -288 -152 -168 -176 -246 -151 -483 38 -360 33 -366
-339 -445 -238 -50 -289 -93 -448 -375 -41 -73 -79 -127 -108 -152 -39 -35
-50 -39 -95 -39 -51 0 -96 16 -291 103 -211 95 -287 90 -560 -30 -117 -52
-163 -68 -210 -71 -58 -4 -61 -3 -105 36 -30 26 -67 79 -109 153 -158 280
-210 324 -443 374 -206 45 -240 55 -282 77 -79 44 -90 109 -62 371 28 256 5
313 -218 556 -94 103 -126 158 -126 215 0 54 28 101 127 210 190 209 224 273
225 416 1 47 -5 132 -12 190 -7 58 -11 140 -9 182 4 65 8 81 29 103 39 42 87
61 221 90 190 40 239 54 302 88 78 41 127 100 225 269 92 160 112 186 162 217
45 28 95 23 204 -23z m-839 -3111 c138 -30 196 -55 234 -104 15 -20 63 -98
106 -173 73 -129 136 -209 197 -254 l26 -19 -141 -244 -140 -244 -73 269 c-81
305 -80 301 -105 314 -30 17 -52 12 -321 -60 -144 -39 -263 -68 -265 -66 -8 8
342 606 355 606 7 0 64 -11 127 -25z m2783 -277 c95 -165 171 -303 168 -305
-2 -3 -121 27 -264 66 -260 71 -286 76 -317 65 -26 -10 -39 -46 -110 -316 -38
-142 -71 -258 -74 -258 -3 0 -68 107 -143 238 -137 236 -138 237 -115 251 58
38 127 127 204 262 94 165 124 202 190 231 39 17 241 66 278 67 6 0 88 -135
183 -301z"/>
<path d="M2375 4165 c-133 -21 -234 -53 -360 -115 -370 -182 -620 -518 -687
-924 -16 -95 -15 -303 1 -396 91 -520 503 -935 1019 -1025 110 -19 316 -19
428 0 306 54 595 233 784 486 109 146 199 357 231 539 16 93 17 301 1 396 -53
319 -226 607 -481 800 -100 76 -293 174 -401 204 -175 48 -371 61 -535 35z
m331 -156 c233 -32 432 -130 606 -297 440 -423 446 -1116 13 -1547 -136 -135
-298 -229 -491 -282 -91 -25 -114 -28 -274 -28 -160 0 -183 3 -275 28 -657
181 -996 899 -710 1504 58 123 105 192 195 287 247 261 590 383 936 335z"/>
<path d="M3230 3443 c-8 -3 -201 -190 -427 -416 l-413 -411 -237 236 c-161
159 -248 239 -267 244 -56 14 -107 -40 -93 -97 4 -13 131 -149 285 -301 256
-257 280 -278 312 -278 33 0 65 30 488 453 402 403 452 457 452 484 0 45 -9
62 -41 78 -30 16 -35 17 -59 8z"/>
</g>
</symbol><symbol id="siren" viewBox="0 0 512.000000 512.000000" preserveAspectRatio="xMidYMid meet">

<g transform="translate(0.000000,512.000000) scale(0.100000,-0.100000)" fill="currentColor" stroke="none">
<path d="M2492 5100 c-18 -11 -41 -34 -52 -52 -19 -31 -20 -47 -18 -300 l3
-268 36 -36 c63 -62 163 -56 214 14 19 25 20 45 23 292 2 251 1 267 -18 298
-26 42 -76 72 -120 72 -19 0 -50 -9 -68 -20z"/>
<path d="M1203 4810 c-57 -34 -85 -102 -65 -159 15 -41 239 -410 270 -444 40
-42 91 -54 147 -33 61 24 90 66 90 131 0 46 -9 65 -131 265 -89 146 -142 222
-164 238 -41 28 -103 29 -147 2z"/>
<path d="M3770 4808 c-22 -16 -75 -92 -164 -238 -122 -200 -131 -219 -131
-265 0 -64 29 -107 89 -130 54 -21 110 -9 148 32 31 34 255 403 270 444 41
118 -108 228 -212 157z"/>
<path d="M226 3960 c-100 -31 -133 -162 -59 -232 16 -14 127 -81 249 -147 188
-103 227 -121 265 -121 85 0 139 57 139 146 0 40 -5 51 -37 83 -42 41 -450
266 -498 274 -16 3 -43 2 -59 -3z"/>
<path d="M4810 3956 c-63 -23 -465 -247 -482 -269 -47 -59 -40 -143 16 -194
31 -28 43 -33 87 -33 47 0 71 11 273 120 261 142 286 164 286 245 0 46 -4 59
-31 89 -17 20 -47 40 -67 46 -44 12 -39 12 -82 -4z"/>
<path d="M1635 3835 c-160 -35 -287 -105 -406 -224 -112 -112 -187 -244 -218
-381 -5 -25 -78 -540 -160 -1145 -83 -605 -153 -1114 -156 -1132 l-6 -32 -179
-3 -180 -3 -29 -30 c-22 -22 -65 -117 -166 -375 -116 -294 -136 -351 -132
-384 7 -49 33 -86 78 -108 32 -17 171 -18 2479 -18 2308 0 2447 1 2479 18 45
22 71 59 78 108 4 33 -16 91 -132 384 -75 190 -144 353 -153 364 -37 41 -65
46 -236 46 l-164 0 -6 27 c-3 16 -73 525 -156 1133 -83 608 -160 1138 -170
1178 -79 289 -321 514 -622 577 -97 21 -1750 21 -1843 0z m1790 -280 c188 -40
343 -179 395 -355 15 -49 320 -2214 320 -2269 0 -8 -472 -11 -1580 -11 -869 0
-1580 3 -1580 7 0 53 306 2226 320 2273 51 174 207 315 390 354 99 22 1634 22
1735 1z m1269 -3083 c36 -93 66 -174 66 -180 0 -9 -508 -12 -2200 -12 -1692 0
-2200 3 -2200 12 0 6 30 87 66 180 l66 168 2068 0 2068 0 66 -168z"/>
<path d="M2350 2888 c0 -139 52 -908 66 -975 4 -23 7 -23 144 -23 l139 0 5 43
c21 156 66 813 66 951 l0 166 -210 0 -210 0 0 -162z"/>
<path d="M2475 1706 c-139 -63 -166 -252 -52 -353 134 -117 346 -21 347 158 0
63 -40 139 -92 175 -33 23 -53 29 -107 31 -41 2 -77 -2 -96 -11z"/>
</g>
</symbol></svg>